<svg height="3822" width="720" xmlns="http://www.w3.org/2000/svg">
<rect height="3822" fill="#555" width="720"></rect>
<text fill="#7f7" font-family="Courier New" font-size="12" xml:space="preserve">
<tspan x="10" y="26">29 megabytes installed</tspan>
<tspan x="10" y="42"></tspan>
<tspan x="10" y="58">node_modules</tspan>
<tspan x="10" y="74">└─┬ tachyons-cli@1.0.11 </tspan>
<tspan x="10" y="90">  ├─┬ authors-to-markdown@0.1.0 </tspan>
<tspan x="10" y="106">  │ ├─┬ normalize-url@1.9.1 </tspan>
<tspan x="10" y="122">  │ │ ├── prepend-http@1.0.4 </tspan>
<tspan x="10" y="138">  │ │ ├─┬ query-string@4.3.4 </tspan>
<tspan x="10" y="154">  │ │ │ └── strict-uri-encode@1.1.0 </tspan>
<tspan x="10" y="170">  │ │ └─┬ sort-keys@1.1.2 </tspan>
<tspan x="10" y="186">  │ │   └── is-plain-obj@1.1.0 </tspan>
<tspan x="10" y="202">  │ └─┬ parse-author@0.2.2 </tspan>
<tspan x="10" y="218">  │   └── author-regex@0.2.1 </tspan>
<tspan x="10" y="234">  ├─┬ chalk@1.1.3 </tspan>
<tspan x="10" y="250">  │ ├── ansi-styles@2.2.1 </tspan>
<tspan x="10" y="266">  │ ├── escape-string-regexp@1.0.5 </tspan>
<tspan x="10" y="282">  │ ├─┬ has-ansi@2.0.0 </tspan>
<tspan x="10" y="298">  │ │ └── ansi-regex@2.1.1 </tspan>
<tspan x="10" y="314">  │ ├── strip-ansi@3.0.1 </tspan>
<tspan x="10" y="330">  │ └── supports-color@2.0.0 </tspan>
<tspan x="10" y="346">  ├─┬ copy-files@0.1.0 </tspan>
<tspan x="10" y="362">  │ ├── async@0.9.2 </tspan>
<tspan x="10" y="378">  │ └── lodash@2.4.2 </tspan>
<tspan x="10" y="394">  ├─┬ css-mqpacker@5.0.1 </tspan>
<tspan x="10" y="410">  │ ├── minimist@1.2.0 </tspan>
<tspan x="10" y="426">  │ └─┬ postcss@5.2.17 </tspan>
<tspan x="10" y="442">  │   ├── js-base64@2.1.9 </tspan>
<tspan x="10" y="458">  │   ├── source-map@0.5.6 </tspan>
<tspan x="10" y="474">  │   └─┬ supports-color@3.2.3 </tspan>
<tspan x="10" y="490">  │     └── has-flag@1.0.0 </tspan>
<tspan x="10" y="506">  ├─┬ cssstats@3.0.0 </tspan>
<tspan x="10" y="522">  │ ├── bytes@2.5.0 </tspan>
<tspan x="10" y="538">  │ ├─┬ css-selector-tokenizer@0.7.0 </tspan>
<tspan x="10" y="554">  │ │ ├── cssesc@0.1.0 </tspan>
<tspan x="10" y="570">  │ │ ├── fastparse@1.1.1 </tspan>
<tspan x="10" y="586">  │ │ └─┬ regexpu-core@1.0.0 </tspan>
<tspan x="10" y="602">  │ │   ├── regenerate@1.3.2 </tspan>
<tspan x="10" y="618">  │ │   ├── regjsgen@0.2.0 </tspan>
<tspan x="10" y="634">  │ │   └─┬ regjsparser@0.1.5 </tspan>
<tspan x="10" y="650">  │ │     └── jsesc@0.5.0 </tspan>
<tspan x="10" y="666">  │ ├─┬ css-shorthand-expand@1.1.0 </tspan>
<tspan x="10" y="682">  │ │ ├── css-color-names@0.0.1 </tspan>
<tspan x="10" y="698">  │ │ ├── css-url-regex@0.0.1 </tspan>
<tspan x="10" y="714">  │ │ ├── hex-color-regex@1.0.3 </tspan>
<tspan x="10" y="730">  │ │ ├── hsl-regex@1.0.0 </tspan>
<tspan x="10" y="746">  │ │ ├── hsla-regex@1.0.0 </tspan>
<tspan x="10" y="762">  │ │ ├── repeat-element@1.1.2 </tspan>
<tspan x="10" y="778">  │ │ ├── rgb-regex@1.0.1 </tspan>
<tspan x="10" y="794">  │ │ ├── rgba-regex@1.0.0 </tspan>
<tspan x="10" y="810">  │ │ └── xtend@4.0.1 </tspan>
<tspan x="10" y="826">  │ ├─┬ gzip-size@3.0.0 </tspan>
<tspan x="10" y="842">  │ │ └── duplexer@0.1.1 </tspan>
<tspan x="10" y="858">  │ ├── has-class-selector@1.0.0 </tspan>
<tspan x="10" y="874">  │ ├─┬ has-element-selector@1.0.0 </tspan>
<tspan x="10" y="890">  │ │ └── css-selector-tokenizer@0.5.4 </tspan>
<tspan x="10" y="906">  │ ├── has-id-selector@1.0.0 </tspan>
<tspan x="10" y="922">  │ ├─┬ has-pseudo-class@1.0.1 </tspan>
<tspan x="10" y="938">  │ │ └── pseudo-classes@0.0.1 </tspan>
<tspan x="10" y="954">  │ ├─┬ has-pseudo-element@1.0.0 </tspan>
<tspan x="10" y="970">  │ │ └── pseudo-elements@1.0.0 </tspan>
<tspan x="10" y="986">  │ ├─┬ is-css-shorthand@1.0.1 </tspan>
<tspan x="10" y="1002">  │ │ └── css-shorthand-properties@1.0.0 </tspan>
<tspan x="10" y="1018">  │ ├─┬ is-vendor-prefixed@0.0.1 </tspan>
<tspan x="10" y="1034">  │ │ └── vendor-prefixes@0.0.1 </tspan>
<tspan x="10" y="1050">  │ ├── postcss-safe-parser@2.0.1 </tspan>
<tspan x="10" y="1066">  │ └── specificity@0.3.0 </tspan>
<tspan x="10" y="1082">  ├── file-exists@2.0.0 </tspan>
<tspan x="10" y="1098">  ├─┬ immutable-css@1.1.2 </tspan>
<tspan x="10" y="1114">  │ ├── extend-options@0.0.1 </tspan>
<tspan x="10" y="1130">  │ ├── file-exists@0.1.1 </tspan>
<tspan x="10" y="1146">  │ ├─┬ get-css-classes@1.1.0 </tspan>
<tspan x="10" y="1162">  │ │ └── css-selector-tokenizer@0.5.4 </tspan>
<tspan x="10" y="1178">  │ ├─┬ glob@5.0.15 </tspan>
<tspan x="10" y="1194">  │ │ ├─┬ inflight@1.0.6 </tspan>
<tspan x="10" y="1210">  │ │ │ └── wrappy@1.0.2 </tspan>
<tspan x="10" y="1226">  │ │ ├── inherits@2.0.3 </tspan>
<tspan x="10" y="1242">  │ │ ├─┬ minimatch@3.0.3 </tspan>
<tspan x="10" y="1258">  │ │ │ └─┬ brace-expansion@1.1.7 </tspan>
<tspan x="10" y="1274">  │ │ │   ├── balanced-match@0.4.2 </tspan>
<tspan x="10" y="1290">  │ │ │   └── concat-map@0.0.1 </tspan>
<tspan x="10" y="1306">  │ │ ├── once@1.4.0 </tspan>
<tspan x="10" y="1322">  │ │ └── path-is-absolute@1.0.1 </tspan>
<tspan x="10" y="1338">  │ ├── is-css@1.0.0 </tspan>
<tspan x="10" y="1354">  │ └── specificity@0.1.6 </tspan>
<tspan x="10" y="1370">  ├─┬ is-blank@1.1.0 </tspan>
<tspan x="10" y="1386">  │ ├── is-empty@0.0.1 </tspan>
<tspan x="10" y="1402">  │ └── is-whitespace@0.3.0 </tspan>
<tspan x="10" y="1418">  ├─┬ is-present@1.0.0 </tspan>
<tspan x="10" y="1434">  │ └── is-blank@1.0.0 </tspan>
<tspan x="10" y="1450">  ├── lodash@4.17.4 </tspan>
<tspan x="10" y="1466">  ├─┬ meow@3.7.0 </tspan>
<tspan x="10" y="1482">  │ ├─┬ camelcase-keys@2.1.0 </tspan>
<tspan x="10" y="1498">  │ │ └── camelcase@2.1.1 </tspan>
<tspan x="10" y="1514">  │ ├── decamelize@1.2.0 </tspan>
<tspan x="10" y="1530">  │ ├─┬ loud-rejection@1.6.0 </tspan>
<tspan x="10" y="1546">  │ │ ├─┬ currently-unhandled@0.4.1 </tspan>
<tspan x="10" y="1562">  │ │ │ └── array-find-index@1.0.2 </tspan>
<tspan x="10" y="1578">  │ │ └── signal-exit@3.0.2 </tspan>
<tspan x="10" y="1594">  │ ├── map-obj@1.0.1 </tspan>
<tspan x="10" y="1610">  │ ├── minimist@1.2.0 </tspan>
<tspan x="10" y="1626">  │ ├─┬ normalize-package-data@2.3.8 </tspan>
<tspan x="10" y="1642">  │ │ ├── hosted-git-info@2.4.2 </tspan>
<tspan x="10" y="1658">  │ │ ├─┬ is-builtin-module@1.0.0 </tspan>
<tspan x="10" y="1674">  │ │ │ └── builtin-modules@1.1.1 </tspan>
<tspan x="10" y="1690">  │ │ ├── semver@5.3.0 </tspan>
<tspan x="10" y="1706">  │ │ └─┬ validate-npm-package-license@3.0.1 </tspan>
<tspan x="10" y="1722">  │ │   ├─┬ spdx-correct@1.0.2 </tspan>
<tspan x="10" y="1738">  │ │   │ └── spdx-license-ids@1.2.2 </tspan>
<tspan x="10" y="1754">  │ │   └── spdx-expression-parse@1.0.4 </tspan>
<tspan x="10" y="1770">  │ ├── object-assign@4.1.1 </tspan>
<tspan x="10" y="1786">  │ ├─┬ read-pkg-up@1.0.1 </tspan>
<tspan x="10" y="1802">  │ │ ├─┬ find-up@1.1.2 </tspan>
<tspan x="10" y="1818">  │ │ │ ├── path-exists@2.1.0 </tspan>
<tspan x="10" y="1834">  │ │ │ └─┬ pinkie-promise@2.0.1 </tspan>
<tspan x="10" y="1850">  │ │ │   └── pinkie@2.0.4 </tspan>
<tspan x="10" y="1866">  │ │ └─┬ read-pkg@1.1.0 </tspan>
<tspan x="10" y="1882">  │ │   ├─┬ load-json-file@1.1.0 </tspan>
<tspan x="10" y="1898">  │ │   │ ├── graceful-fs@4.1.11 </tspan>
<tspan x="10" y="1914">  │ │   │ ├─┬ parse-json@2.2.0 </tspan>
<tspan x="10" y="1930">  │ │   │ │ └─┬ error-ex@1.3.1 </tspan>
<tspan x="10" y="1946">  │ │   │ │   └── is-arrayish@0.2.1 </tspan>
<tspan x="10" y="1962">  │ │   │ └─┬ strip-bom@2.0.0 </tspan>
<tspan x="10" y="1978">  │ │   │   └── is-utf8@0.2.1 </tspan>
<tspan x="10" y="1994">  │ │   └── path-type@1.1.0 </tspan>
<tspan x="10" y="2010">  │ ├─┬ redent@1.0.0 </tspan>
<tspan x="10" y="2026">  │ │ ├─┬ indent-string@2.1.0 </tspan>
<tspan x="10" y="2042">  │ │ │ └─┬ repeating@2.0.1 </tspan>
<tspan x="10" y="2058">  │ │ │   └─┬ is-finite@1.0.2 </tspan>
<tspan x="10" y="2074">  │ │ │     └── number-is-nan@1.0.1 </tspan>
<tspan x="10" y="2090">  │ │ └── strip-indent@1.0.1 </tspan>
<tspan x="10" y="2106">  │ └── trim-newlines@1.0.0 </tspan>
<tspan x="10" y="2122">  ├─┬ mkdirp@0.5.1 </tspan>
<tspan x="10" y="2138">  │ └── minimist@0.0.8 </tspan>
<tspan x="10" y="2154">  ├─┬ single-trailing-newline@1.0.0 </tspan>
<tspan x="10" y="2170">  │ └─┬ detect-newline@1.0.3 </tspan>
<tspan x="10" y="2186">  │   ├── get-stdin@4.0.1 </tspan>
<tspan x="10" y="2202">  │   └── minimist@1.2.0 </tspan>
<tspan x="10" y="2218">  └─┬ tachyons-build-css@1.1.5 </tspan>
<tspan x="10" y="2234">    ├─┬ autoprefixer@6.7.7 </tspan>
<tspan x="10" y="2250">    │ ├─┬ browserslist@1.7.7 </tspan>
<tspan x="10" y="2266">    │ │ └── electron-to-chromium@1.3.8 </tspan>
<tspan x="10" y="2282">    │ ├── caniuse-db@1.0.30000662 </tspan>
<tspan x="10" y="2298">    │ ├── normalize-range@0.1.2 </tspan>
<tspan x="10" y="2314">    │ ├── num2fraction@1.2.2 </tspan>
<tspan x="10" y="2330">    │ └── postcss-value-parser@3.3.0 </tspan>
<tspan x="10" y="2346">    ├─┬ cssnano@3.10.0 </tspan>
<tspan x="10" y="2362">    │ ├── defined@1.0.0 </tspan>
<tspan x="10" y="2378">    │ ├─┬ has@1.0.1 </tspan>
<tspan x="10" y="2394">    │ │ └── function-bind@1.1.0 </tspan>
<tspan x="10" y="2410">    │ ├─┬ postcss-calc@5.3.1 </tspan>
<tspan x="10" y="2426">    │ │ ├── postcss-message-helpers@2.0.0 </tspan>
<tspan x="10" y="2442">    │ │ └─┬ reduce-css-calc@1.3.0 </tspan>
<tspan x="10" y="2458">    │ │   ├── math-expression-evaluator@1.2.16 </tspan>
<tspan x="10" y="2474">    │ │   └── reduce-function-call@1.0.2 </tspan>
<tspan x="10" y="2490">    │ ├─┬ postcss-colormin@2.2.2 </tspan>
<tspan x="10" y="2506">    │ │ └─┬ colormin@1.1.2 </tspan>
<tspan x="10" y="2522">    │ │   ├─┬ color@0.11.4 </tspan>
<tspan x="10" y="2538">    │ │   │ ├── clone@1.0.2 </tspan>
<tspan x="10" y="2554">    │ │   │ ├── color-convert@1.9.0 </tspan>
<tspan x="10" y="2570">    │ │   │ └── color-string@0.3.0 </tspan>
<tspan x="10" y="2586">    │ │   └── css-color-names@0.0.4 </tspan>
<tspan x="10" y="2602">    │ ├── postcss-convert-values@2.6.1 </tspan>
<tspan x="10" y="2618">    │ ├── postcss-discard-duplicates@2.1.0 </tspan>
<tspan x="10" y="2634">    │ ├── postcss-discard-empty@2.1.0 </tspan>
<tspan x="10" y="2650">    │ ├── postcss-discard-overridden@0.1.1 </tspan>
<tspan x="10" y="2666">    │ ├─┬ postcss-discard-unused@2.2.3 </tspan>
<tspan x="10" y="2682">    │ │ └── uniqs@2.0.0 </tspan>
<tspan x="10" y="2698">    │ ├─┬ postcss-filter-plugins@2.0.2 </tspan>
<tspan x="10" y="2714">    │ │ └─┬ uniqid@4.1.1 </tspan>
<tspan x="10" y="2730">    │ │   └── macaddress@0.2.8 </tspan>
<tspan x="10" y="2746">    │ ├── postcss-merge-idents@2.1.7 </tspan>
<tspan x="10" y="2762">    │ ├── postcss-merge-longhand@2.0.2 </tspan>
<tspan x="10" y="2778">    │ ├─┬ postcss-merge-rules@2.1.2 </tspan>
<tspan x="10" y="2794">    │ │ ├─┬ caniuse-api@1.6.1 </tspan>
<tspan x="10" y="2810">    │ │ │ ├── lodash.memoize@4.1.2 </tspan>
<tspan x="10" y="2826">    │ │ │ └── lodash.uniq@4.5.0 </tspan>
<tspan x="10" y="2842">    │ │ └─┬ postcss-selector-parser@2.2.3 </tspan>
<tspan x="10" y="2858">    │ │   ├── flatten@1.0.2 </tspan>
<tspan x="10" y="2874">    │ │   ├── indexes-of@1.0.1 </tspan>
<tspan x="10" y="2890">    │ │   └── uniq@1.0.1 </tspan>
<tspan x="10" y="2906">    │ ├── postcss-minify-font-values@1.0.5 </tspan>
<tspan x="10" y="2922">    │ ├── postcss-minify-gradients@1.0.5 </tspan>
<tspan x="10" y="2938">    │ ├─┬ postcss-minify-params@1.2.2 </tspan>
<tspan x="10" y="2954">    │ │ └── alphanum-sort@1.0.2 </tspan>
<tspan x="10" y="2970">    │ ├── postcss-minify-selectors@2.1.1 </tspan>
<tspan x="10" y="2986">    │ ├── postcss-normalize-charset@1.1.1 </tspan>
<tspan x="10" y="3002">    │ ├─┬ postcss-normalize-url@3.0.8 </tspan>
<tspan x="10" y="3018">    │ │ └── is-absolute-url@2.1.0 </tspan>
<tspan x="10" y="3034">    │ ├── postcss-ordered-values@2.2.3 </tspan>
<tspan x="10" y="3050">    │ ├── postcss-reduce-idents@2.4.0 </tspan>
<tspan x="10" y="3066">    │ ├── postcss-reduce-initial@1.0.1 </tspan>
<tspan x="10" y="3082">    │ ├── postcss-reduce-transforms@1.0.4 </tspan>
<tspan x="10" y="3098">    │ ├─┬ postcss-svgo@2.1.6 </tspan>
<tspan x="10" y="3114">    │ │ ├─┬ is-svg@2.1.0 </tspan>
<tspan x="10" y="3130">    │ │ │ └── html-comment-regex@1.1.1 </tspan>
<tspan x="10" y="3146">    │ │ └─┬ svgo@0.7.2 </tspan>
<tspan x="10" y="3162">    │ │   ├─┬ coa@1.0.1 </tspan>
<tspan x="10" y="3178">    │ │   │ └── q@1.5.0 </tspan>
<tspan x="10" y="3194">    │ │   ├── colors@1.1.2 </tspan>
<tspan x="10" y="3210">    │ │   ├─┬ csso@2.3.2 </tspan>
<tspan x="10" y="3226">    │ │   │ └── clap@1.1.3 </tspan>
<tspan x="10" y="3242">    │ │   ├─┬ js-yaml@3.7.0 </tspan>
<tspan x="10" y="3258">    │ │   │ ├─┬ argparse@1.0.9 </tspan>
<tspan x="10" y="3274">    │ │   │ │ └── sprintf-js@1.0.3 </tspan>
<tspan x="10" y="3290">    │ │   │ └── esprima@2.7.3 </tspan>
<tspan x="10" y="3306">    │ │   ├── sax@1.2.2 </tspan>
<tspan x="10" y="3322">    │ │   └── whet.extend@0.9.9 </tspan>
<tspan x="10" y="3338">    │ ├── postcss-unique-selectors@2.0.2 </tspan>
<tspan x="10" y="3354">    │ └── postcss-zindex@2.2.0 </tspan>
<tspan x="10" y="3370">    ├─┬ perfectionist@2.4.0 </tspan>
<tspan x="10" y="3386">    │ ├── comment-regex@1.0.0 </tspan>
<tspan x="10" y="3402">    │ ├── minimist@1.2.0 </tspan>
<tspan x="10" y="3418">    │ ├── postcss-scss@0.3.1 </tspan>
<tspan x="10" y="3434">    │ ├─┬ read-file-stdin@0.2.1 </tspan>
<tspan x="10" y="3450">    │ │ └── gather-stream@1.0.0 </tspan>
<tspan x="10" y="3466">    │ ├── string.prototype.repeat@0.2.0 </tspan>
<tspan x="10" y="3482">    │ ├── vendors@1.0.1 </tspan>
<tspan x="10" y="3498">    │ └── write-file-stdout@0.0.2 </tspan>
<tspan x="10" y="3514">    ├─┬ postcss-class-repeat@0.1.0 </tspan>
<tspan x="10" y="3530">    │ └─┬ class-repeat@1.0.1 </tspan>
<tspan x="10" y="3546">    │   └── css-selector-tokenizer@0.5.4 </tspan>
<tspan x="10" y="3562">    ├─┬ postcss-conditionals@2.1.0 </tspan>
<tspan x="10" y="3578">    │ ├─┬ css-color-converter@1.1.0 </tspan>
<tspan x="10" y="3594">    │ │ ├── color-convert@0.5.3 </tspan>
<tspan x="10" y="3610">    │ │ └── color-name@1.1.2 </tspan>
<tspan x="10" y="3626">    │ └── css-unit-converter@1.1.1 </tspan>
<tspan x="10" y="3642">    ├─┬ postcss-css-variables@0.7.0 </tspan>
<tspan x="10" y="3658">    │ └── extend@2.0.1 </tspan>
<tspan x="10" y="3674">    ├── postcss-custom-media@5.0.1 </tspan>
<tspan x="10" y="3690">    ├── postcss-discard-comments@2.0.4 </tspan>
<tspan x="10" y="3706">    └─┬ postcss-import@9.1.0 </tspan>
<tspan x="10" y="3722">      ├─┬ promise-each@2.2.0 </tspan>
<tspan x="10" y="3738">      │ └── any-promise@0.1.0 </tspan>
<tspan x="10" y="3754">      ├─┬ read-cache@1.0.0 </tspan>
<tspan x="10" y="3770">      │ └── pify@2.3.0 </tspan>
<tspan x="10" y="3786">      └─┬ resolve@1.3.3 </tspan>
<tspan x="10" y="3802">        └── path-parse@1.0.5</tspan>
</text>
</svg>
